<svg xmlns="http://www.w3.org/2000/svg" width="148" height="108" viewBox="0 0 191.557 139.71">
  <g id="Group_3" transform="translate(-548.576 -836.55)">
    <g id="Polygon_1" transform="translate(548.576 837.036)" fill="none" stroke-linejoin="round">
      <path d="M98.219,135.677a2.942,2.942,0,0,1-1.094.962,2.987,2.987,0,0,1-2.694,0,2.942,2.942,0,0,1-1.094-.962L3.193,4.641a2.932,2.932,0,0,1-.525-1.554A3,3,0,0,1,4.055.449,2.932,2.932,0,0,1,5.633,0h180.29A2.932,2.932,0,0,1,187.5.449a3,3,0,0,1,1.387,2.638,2.932,2.932,0,0,1-.525,1.554Z" stroke="none"/>
      <path d="M 5.633306980133057 2.962204694747925 L 5.633352279663086 2.962204694747925 C 5.633352279663086 2.962219715118408 5.633352279663086 2.962219715118408 5.633352279663086 2.962219715118408 C 5.633352279663086 2.962219715118408 5.633352279663086 2.962219715118408 5.633337020874023 2.962219715118408 C 5.633321762084961 2.962219715118408 5.633321762084961 2.962219715118408 5.633321762084961 2.962219715118408 C 5.633321762084961 2.962219715118408 5.633321762084961 2.962219715118408 5.633306980133057 2.962204694747925 L 95.7784423828125 133.9978637695312 C 95.77845001220703 133.9978637695312 95.77845001220703 133.9978637695312 95.77845001220703 133.9978637695312 C 95.77845001220703 133.9978637695312 95.77845001220703 133.9978637695312 95.77845001220703 133.9978637695312 C 95.77845001220703 133.9978637695312 95.77845001220703 133.9978637695312 95.77845001220703 133.9978637695312 C 95.77845001220703 133.9978637695312 95.77845764160156 133.9978637695312 95.77845764160156 133.9978637695312 L 185.9235382080078 2.962234735488892 C 185.9235382080078 2.962234735488892 185.9235382080078 2.962234735488892 185.9235382080078 2.962234735488892 C 185.9235382080078 2.962234735488892 185.9235382080078 2.962234735488892 185.9235382080078 2.962234735488892 C 185.9235382080078 2.962234735488892 185.9235382080078 2.962234735488892 185.9235382080078 2.962234735488892 C 185.9235382080078 2.962234735488892 185.9235382080078 2.962234735488892 185.9235382080078 2.962234735488892 C 185.9235382080078 2.962219715118408 185.9235382080078 2.962219715118408 185.9235382080078 2.962219715118408 C 185.9235382080078 2.962219715118408 185.9235382080078 2.962219715118408 185.9235382080078 2.962219715118408 C 185.9235382080078 2.962219715118408 185.9235382080078 2.962219715118408 185.9235382080078 2.962219715118408 C 185.9235382080078 2.962219715118408 185.9235382080078 2.962219715118408 185.9235382080078 2.962204694747925 L 5.633306980133057 2.962204694747925 M 5.633306980133057 -1.506662829342531e-05 L 185.9235382080078 -1.506662829342531e-05 C 186.5199127197266 -1.506662829342531e-05 187.0551452636719 0.1672094464302063 187.5013885498047 0.4487745761871338 C 187.9476318359375 0.7303397655487061 188.3049011230469 1.126230478286743 188.5453643798828 1.583547830581665 C 188.7858428955078 2.040865182876587 188.9095153808594 2.559579133987427 188.8885650634766 3.086820602416992 C 188.8676147460938 3.614062309265137 188.7020416259766 4.149801254272461 188.3640441894531 4.641139030456543 L 98.21894073486328 135.6767883300781 C 98.07180023193359 135.8906860351562 97.90357971191406 136.0778198242188 97.71952819824219 136.2382354736328 C 97.53549194335938 136.3986511230469 97.33563232421875 136.5323181152344 97.12522888183594 136.6392669677734 C 96.91481781005859 136.7462158203125 96.69387054443359 136.8264312744141 96.4676513671875 136.8798980712891 C 96.24143218994141 136.9333648681641 96.00994110107422 136.9600982666016 95.77845001220703 136.9600982666016 C 95.54695892333984 136.9600982666016 95.31546783447266 136.9333648681641 95.08924865722656 136.8798980712891 C 94.86302947998047 136.8264312744141 94.64208221435547 136.7462158203125 94.43167114257812 136.6392669677734 C 94.22126770019531 136.5323181152344 94.02140808105469 136.3986511230469 93.83737182617188 136.2382354736328 C 93.65332794189453 136.0778198242188 93.48509979248047 135.8906860351562 93.33795928955078 135.6767883300781 L 3.192829370498657 4.641139030456543 C 2.854824781417847 4.149801254272461 2.689257621765137 3.614062309265137 2.668299913406372 3.086820602416992 C 2.647357225418091 2.559579133987427 2.771024227142334 2.040865182876587 3.011487483978271 1.583547830581665 C 3.251950979232788 1.126230478286743 3.609225988388062 0.7303397655487061 4.055469036102295 0.4487745761871338 C 4.501712799072266 0.1672094464302063 5.036924362182617 -1.506662829342531e-05 5.633306980133057 -1.506662829342531e-05 Z" stroke="none" fill="#f5efef"/>
    </g>
    <g id="Polygon_2" transform="translate(548.576 836.55)" fill="none" stroke-linejoin="round">
      <path d="M98.219,135.677a2.942,2.942,0,0,1-1.094.962,2.987,2.987,0,0,1-2.694,0,2.942,2.942,0,0,1-1.094-.962L3.193,4.641a2.932,2.932,0,0,1-.525-1.554A3,3,0,0,1,4.055.449,2.932,2.932,0,0,1,5.633,0h180.29A2.932,2.932,0,0,1,187.5.449a3,3,0,0,1,1.387,2.638,2.932,2.932,0,0,1-.525,1.554Z" stroke="none"/>
      <path d="M 5.633306980133057 2.962204694747925 L 5.633352279663086 2.962204694747925 C 5.633352279663086 2.962219715118408 5.633352279663086 2.962219715118408 5.633352279663086 2.962219715118408 C 5.633352279663086 2.962219715118408 5.633352279663086 2.962219715118408 5.633337020874023 2.962219715118408 C 5.633321762084961 2.962219715118408 5.633321762084961 2.962219715118408 5.633321762084961 2.962219715118408 C 5.633321762084961 2.962219715118408 5.633321762084961 2.962219715118408 5.633306980133057 2.962204694747925 L 95.7784423828125 133.9978637695312 C 95.77845001220703 133.9978637695312 95.77845001220703 133.9978637695312 95.77845001220703 133.9978637695312 C 95.77845001220703 133.9978637695312 95.77845001220703 133.9978637695312 95.77845001220703 133.9978637695312 C 95.77845001220703 133.9978637695312 95.77845001220703 133.9978637695312 95.77845001220703 133.9978637695312 C 95.77845001220703 133.9978637695312 95.77845764160156 133.9978637695312 95.77845764160156 133.9978637695312 L 185.9235382080078 2.962234735488892 C 185.9235382080078 2.962234735488892 185.9235382080078 2.962234735488892 185.9235382080078 2.962234735488892 C 185.9235382080078 2.962234735488892 185.9235382080078 2.962234735488892 185.9235382080078 2.962234735488892 C 185.9235382080078 2.962234735488892 185.9235382080078 2.962234735488892 185.9235382080078 2.962234735488892 C 185.9235382080078 2.962234735488892 185.9235382080078 2.962234735488892 185.9235382080078 2.962234735488892 C 185.9235382080078 2.962219715118408 185.9235382080078 2.962219715118408 185.9235382080078 2.962219715118408 C 185.9235382080078 2.962219715118408 185.9235382080078 2.962219715118408 185.9235382080078 2.962219715118408 C 185.9235382080078 2.962219715118408 185.9235382080078 2.962219715118408 185.9235382080078 2.962219715118408 C 185.9235382080078 2.962219715118408 185.9235382080078 2.962219715118408 185.9235382080078 2.962204694747925 L 5.633306980133057 2.962204694747925 M 5.633306980133057 -1.506662829342531e-05 L 185.9235382080078 -1.506662829342531e-05 C 186.5199127197266 -1.506662829342531e-05 187.0551452636719 0.1672094464302063 187.5013885498047 0.4487745761871338 C 187.9476318359375 0.7303397655487061 188.3049011230469 1.126230478286743 188.5453643798828 1.583547830581665 C 188.7858428955078 2.040865182876587 188.9095153808594 2.559579133987427 188.8885650634766 3.086820602416992 C 188.8676147460938 3.614062309265137 188.7020416259766 4.149801254272461 188.3640441894531 4.641139030456543 L 98.21894073486328 135.6767883300781 C 98.07180023193359 135.8906860351562 97.90357971191406 136.0778198242188 97.71952819824219 136.2382354736328 C 97.53549194335938 136.3986511230469 97.33563232421875 136.5323181152344 97.12522888183594 136.6392669677734 C 96.91481781005859 136.7462158203125 96.69387054443359 136.8264312744141 96.4676513671875 136.8798980712891 C 96.24143218994141 136.9333648681641 96.00994110107422 136.9600982666016 95.77845001220703 136.9600982666016 C 95.54695892333984 136.9600982666016 95.31546783447266 136.9333648681641 95.08924865722656 136.8798980712891 C 94.86302947998047 136.8264312744141 94.64208221435547 136.7462158203125 94.43167114257812 136.6392669677734 C 94.22126770019531 136.5323181152344 94.02140808105469 136.3986511230469 93.83737182617188 136.2382354736328 C 93.65332794189453 136.0778198242188 93.48509979248047 135.8906860351562 93.33795928955078 135.6767883300781 L 3.192829370498657 4.641139030456543 C 2.854824781417847 4.149801254272461 2.689257621765137 3.614062309265137 2.668299913406372 3.086820602416992 C 2.647357225418091 2.559579133987427 2.771024227142334 2.040865182876587 3.011487483978271 1.583547830581665 C 3.251950979232788 1.126230478286743 3.609225988388062 0.7303397655487061 4.055469036102295 0.4487745761871338 C 4.501712799072266 0.1672094464302063 5.036924362182617 -1.506662829342531e-05 5.633306980133057 -1.506662829342531e-05 Z" stroke="none" fill="#f5efef"/>
    </g>
  </g>
</svg>
